/* XPM */
static char * 22x22_kvoctrain_xpm[] = {
"22 22 99 2",
"  	c None",
". 	c #000000",
"+ 	c #FAF6C3",
"@ 	c #D5D1A6",
"# 	c #FFFEDB",
"$ 	c #FFFEDA",
"% 	c #FEFDD5",
"& 	c #EFEDBD",
"* 	c #BEBB8D",
"= 	c #F7F6D0",
"- 	c #FAF9CA",
"; 	c #FFFDC7",
"> 	c #FBF8B9",
", 	c #EAE7A5",
"' 	c #17140D",
") 	c #C5C4AA",
"! 	c #DDDCB7",
"~ 	c #FBF9C6",
"{ 	c #FFFDC1",
"] 	c #FFFDB8",
"^ 	c #FFFDAE",
"/ 	c #FFFDA4",
"( 	c #F3EE98",
"_ 	c #FF0000",
": 	c #A09F8B",
"< 	c #C7C6A7",
"[ 	c #F8F6C6",
"} 	c #FFFDC3",
"| 	c #FFFDB9",
"1 	c #FFFDAF",
"2 	c #FFFDA6",
"3 	c #F1ED87",
"4 	c #FFFFFF",
"5 	c #0A0A85",
"6 	c #FDFBA4",
"7 	c #DBD877",
"8 	c #FFFF00",
"9 	c #EDEB99",
"0 	c #C7C15D",
"a 	c #CCC983",
"b 	c #050500",
"c 	c #969471",
"d 	c #9C9B81",
"e 	c #BBB96F",
"f 	c #BFBD93",
"g 	c #BFBD98",
"h 	c #090983",
"i 	c #FC0000",
"j 	c #FCFCFC",
"k 	c #FDFDFD",
"l 	c #FD0000",
"m 	c #FEFEFE",
"n 	c #A8A460",
"o 	c #F40000",
"p 	c #F80202",
"q 	c #EA0000",
"r 	c #F7F7F7",
"s 	c #090984",
"t 	c #989545",
"u 	c #FFFDFD",
"v 	c #FFEBEB",
"w 	c #CD0000",
"x 	c #EAEAEA",
"y 	c #FFA4A4",
"z 	c #FA0000",
"A 	c #89885F",
"B 	c #A2A06D",
"C 	c #B2B074",
"D 	c #B5B372",
"E 	c #B5B26E",
"F 	c #B0AE62",
"G 	c #F20302",
"H 	c #949260",
"I 	c #B0AE71",
"J 	c #C1BF78",
"K 	c #C4C176",
"L 	c #C4C171",
"M 	c #ADA952",
"N 	c #FBF5F5",
"O 	c #B0AE6C",
"P 	c #D1CE7E",
"Q 	c #E6E387",
"R 	c #E9E685",
"S 	c #E8E57F",
"T 	c #010100",
"U 	c #BFBD6F",
"V 	c #E3E081",
"W 	c #FAF78A",
"X 	c #FDFA87",
"Y 	c #F1EC77",
"Z 	c #C0BD68",
"` 	c #E5E27B",
" .	c #FCF983",
"..	c #FFFC81",
"+.	c #BEB749",
"@.	c #BFB757",
"#.	c #DDD472",
"$.	c #EDE477",
"%.	c #111003",
"                                            ",
"                  . .                       ",
"                . + @ . . .                 ",
"                . # $ % & * . . .           ",
"  . . . . . . . . . . . = - ; > , . . . '   ",
"  . . . . . . . . . . . ) ! ~ { ] ^ / ( .   ",
"  _ _ _ _ _ _ _ _ _ _ _ : < [ } | 1 2 3 .   ",
"  _ _ _ _ _ _ 4 _ 5 5 4 _ 4 5 5 _ 4 6 7 .   ",
"  8 8 8 8 8 8 5 4 _ 5 4 _ 4 5 _ 4 5 9 0 .   ",
"  8 8 8 8 8 8 5 5 4 _ 4 _ 4 _ 4 5 5 a . b   ",
"        . c d _ _ _ _ _ _ _ _ _ _ _ e .     ",
"        . f g h h i j k l m 4 _ 5 5 n .     ",
"  o o o o o o o _ _ _ p q r s 4 _ 5 t .     ",
"  o o o u v o _ _ _ _ i w x h 5 4 _ . .     ",
"  o o 4 y o o o y _ _ z A B C D E F . .     ",
"  o o 4 o _ _ y 4 y _ G H I J K L M .       ",
"  o o N y o o o y o o o O P Q R S . T       ",
"  o o o 4 4 o o o o o o U V W X Y .         ",
"  o o o o o o o o o o o Z `  ...+..         ",
"                  . . . . @.#.$..           ",
"                        b . . . %.          ",
"                                            "};
