/* XPM */
static char * 32x32_kvoctrain_xpm[] = {
"32 32 233 2",
"  	c None",
". 	c #000000",
"+ 	c #28251A",
"@ 	c #B5AA73",
"# 	c #4E4B38",
"$ 	c #282719",
"% 	c #4E4A38",
"& 	c #F6EFB7",
"* 	c #F8F5C4",
"= 	c #BEB990",
"- 	c #65623F",
"; 	c #413D27",
"> 	c #231D14",
", 	c #D9D49F",
"' 	c #B8B489",
") 	c #918D5D",
"! 	c #7F724C",
"~ 	c #C7C59D",
"{ 	c #ECEAB6",
"] 	c #FCFABB",
"^ 	c #FFFDB8",
"/ 	c #F9F6AB",
"( 	c #E3DF93",
"_ 	c #A69967",
": 	c #4F4D33",
"< 	c #423E28",
"[ 	c #241E15",
"} 	c #FF0000",
"| 	c #B8B693",
"1 	c #E7E5B4",
"2 	c #FBF9BC",
"3 	c #FFFDBA",
"4 	c #FFFDB3",
"5 	c #FFFDAD",
"6 	c #FFFDA6",
"7 	c #F9F69E",
"8 	c #E3DA8C",
"9 	c #8E8739",
"0 	c #B5B492",
"a 	c #E6E4B5",
"b 	c #FBF9BE",
"c 	c #FFFDBC",
"d 	c #FFFDB5",
"e 	c #FFFDAF",
"f 	c #FFFDA7",
"g 	c #FFFDA1",
"h 	c #F6F095",
"i 	c #AEA941",
"j 	c #F60000",
"k 	c #F20000",
"l 	c #ABAA8B",
"m 	c #D9D7AB",
"n 	c #EEECB5",
"o 	c #FBF9BA",
"p 	c #FFFDB6",
"q 	c #FFFDB0",
"r 	c #FFFDA8",
"s 	c #FFFDA2",
"t 	c #F1ED84",
"u 	c #A9A52F",
"v 	c #FFFF00",
"w 	c #FEFCB5",
"x 	c #FEFCAF",
"y 	c #DBD872",
"z 	c #31300A",
"A 	c #1A1A8D",
"B 	c #090984",
"C 	c #FFAAAA",
"D 	c #F7F5AF",
"E 	c #FBF9AC",
"F 	c #FEFCA7",
"G 	c #CBC46F",
"H 	c #2E2C09",
"I 	c #FFFFFF",
"J 	c #E3E1A0",
"K 	c #EEECA2",
"L 	c #FBF9A4",
"M 	c #FEFCA0",
"N 	c #C3BC48",
"O 	c #2F2E09",
"P 	c #CFCD91",
"Q 	c #E3E19A",
"R 	c #F7F5A0",
"S 	c #FEFC9F",
"T 	c #7E7B20",
"U 	c #131203",
"V 	c #665F40",
"W 	c #B2B192",
"X 	c #C5C387",
"Y 	c #DDDB94",
"Z 	c #F6F49E",
"` 	c #EBE48F",
" .	c #5B5912",
"..	c #3B3726",
"+.	c #C4BF8C",
"@.	c #E3E2B7",
"#.	c #C3C185",
"$.	c #DCDA91",
"%.	c #F5F39B",
"&.	c #E2DC6C",
"*.	c #FEA9A9",
"=.	c #FEFEFE",
"-.	c #FE0000",
";.	c #C3C182",
">.	c #DCDA8F",
",.	c #F2EF98",
"'.	c #AFAC45",
").	c #F6A4A4",
"!.	c #08087F",
"~.	c #F8F8F8",
"{.	c #FBFBFB",
"].	c #C3C17F",
"^.	c #DCDA8B",
"/.	c #ECE78B",
"(.	c #AAA43A",
"_.	c #FF1A1A",
":.	c #FF8888",
"<.	c #FFBFBF",
"[.	c #FF1111",
"}.	c #DD9393",
"|.	c #070772",
"1.	c #080876",
"2.	c #08087C",
"3.	c #C3C17C",
"4.	c #DCDA89",
"5.	c #DEDB75",
"6.	c #78741E",
"7.	c #FF8C8C",
"8.	c #FF8484",
"9.	c #FF2626",
"0.	c #C3C17A",
"a.	c #DCD985",
"b.	c #C5C06A",
"c.	c #302F09",
"d.	c #FF7777",
"e.	c #FF5E5E",
"f.	c #817F5B",
"g.	c #83815C",
"h.	c #8D8B60",
"i.	c #9E9C6A",
"j.	c #AFAD73",
"k.	c #B5B374",
"l.	c #B8B673",
"m.	c #C5C277",
"n.	c #DDDA82",
"o.	c #B9B144",
"p.	c #2B2907",
"q.	c #FF5555",
"r.	c #88875D",
"s.	c #8B895E",
"t.	c #959464",
"u.	c #A8A76E",
"v.	c #BBB977",
"w.	c #C2C078",
"x.	c #C4C177",
"y.	c #CFCC79",
"z.	c #E3E081",
"A.	c #7A771E",
"B.	c #121102",
"C.	c #FF0D0D",
"D.	c #9A9966",
"E.	c #9C9A65",
"F.	c #A9A76C",
"G.	c #BEBC78",
"H.	c #D3D181",
"I.	c #DBD883",
"J.	c #D9D267",
"K.	c #535010",
"L.	c #ACAB6E",
"M.	c #AEAD6D",
"N.	c #BDBB75",
"O.	c #D5D281",
"P.	c #ECE98D",
"Q.	c #F4F18E",
"R.	c #F6F38B",
"S.	c #F7F488",
"T.	c #C0BD4A",
"U.	c #1D1B05",
"V.	c #FF1919",
"W.	c #B3B16D",
"X.	c #B5B36D",
"Y.	c #C4C174",
"Z.	c #DDDA80",
"`.	c #F5F28B",
" +	c #FDFA8C",
".+	c #FEFB8A",
"++	c #F3EE79",
"@+	c #9E972F",
"#+	c #B4B16A",
"$+	c #B6B369",
"%+	c #C5C270",
"&+	c #DEDB7D",
"*+	c #F6F388",
"=+	c #FEFB88",
"-+	c #FFFC86",
";+	c #D3CC5A",
">+	c #4F4B13",
",+	c #B4B164",
"'+	c #B7B465",
")+	c #C5C26B",
"!+	c #DEDB77",
"~+	c #F6F381",
"{+	c #FEFB82",
"]+	c #F9F57B",
"^+	c #938E2C",
"/+	c #1E1C06",
"(+	c #0D0C02",
"_+	c #252507",
":+	c #413F11",
"<+	c #807C27",
"[+	c #938F3B",
"}+	c #A89F52",
"|+	c #B9B661",
"1+	c #C7C468",
"2+	c #DFDC72",
"3+	c #F7F47C",
"4+	c #FEFB7D",
"5+	c #E3DD62",
"6+	c #524E11",
"7+	c #1A1905",
"8+	c #515010",
"9+	c #635F1D",
"0+	c #A39941",
"a+	c #B7AB66",
"b+	c #E1D870",
"c+	c #E8DA7D",
"d+	c #9F9830",
"e+	c #0F0F02",
"f+	c #2A2908",
"g+	c #282607",
"h+	c #746D24",
"i+	c #99912F",
"j+	c #4C4813",
"                                                                ",
"                          .                                     ",
"                        + @ # $                                 ",
"                        % & * = - .                             ",
"      . . . . . . . . . . . . . . . . . ; >                     ",
"      . . . . . . . . . . . . . . . . . , ' ) ! . .             ",
"      . . . . . . . . . . . . . . . . . ~ { ] ^ / ( _ : < [     ",
"      . } } } } } } } } } } } } } } } . | 1 2 3 4 5 6 7 8 9 .   ",
"      . } } } } } } } } } } } } } } } . 0 a b c d e f g h i .   ",
"      . } } } } } j k k k k k k k k k . l m n o p q r s t u .   ",
"      . v v v v v . . . . . . . . . . . . . . . w x r s y z     ",
"      . v v v v v . } } A B B C } C B B B } } . D E F s G H     ",
"      . v v v v v . I I } } B C } C B } } I I . J K L M N O     ",
"      . . . . . . . B B I I } C } C } I I B B . P Q R S T U     ",
"              V W . } } } } } } } } } } } } } . X Y Z `  ..     ",
"            ..+.@.. } } } } } } } } } } } } } . #.$.%.&. ..     ",
"  . . . . . . . . . . . . . . . . *.=.-.-.B B . ;.>.,.'..       ",
"  . } } } } } } } } } } } } } } . ).!.~.{.-.} . ].^./.(..       ",
"  . } } } _.:.<.<.[.} } } } } } . }.|.1.2.{.=.. 3.4.5.6..       ",
"  . } } } I I 7.7.8.9.} } } } } . . . . . . . . 0.a.b.c.        ",
"  . } } :.I d.} } [.[.e.e.} } } . f.g.h.i.j.k.l.m.n.o.p.        ",
"  . } } C I q.} } } } C C } } } . r.s.t.u.v.w.x.y.z.A.B.        ",
"  . } } :.I d.} } [.[.C.C.} } } . D.E.F.G.H.I.n.z.J.K..         ",
"  . } } } I I 7.7.8.9.} } } } } . L.M.N.O.P.Q.R.S.T.U.          ",
"  . } } } V.:.<.<.[.} } } } } } . W.X.Y.Z.`. +.+++@+.           ",
"  . } } } } } } } } } } } } } } . #+$+%+&+*+=+-+;+>+.           ",
"  . . . . . . . . . . . . . . . . ,+'+)+!+~+{+]+^+/+            ",
"                    . . (+_+:+<+[+}+|+1+2+3+4+5+6+.             ",
"                            . . 7+8+9+0+a+b+c+d+.               ",
"                                  . e+f+g+h+i+j+.               ",
"                                          . . .                 ",
"                                                                "};
