/* XPM */
static char * large_kvoctrain_xpm[] = {
"48 48 211 2",
"  	c None",
". 	c #020204",
"+ 	c #FEFE04",
"@ 	c #666214",
"# 	c #B6B244",
"$ 	c #92921C",
"% 	c #82821C",
"& 	c #767614",
"* 	c #E2DE7C",
"= 	c #727214",
"- 	c #020284",
"; 	c #6E6614",
"> 	c #DEDEBC",
", 	c #6E6A14",
"' 	c #020274",
") 	c #DAD264",
"! 	c #FEFED4",
"~ 	c #E6E684",
"{ 	c #CE0204",
"] 	c #CECA74",
"^ 	c #92925C",
"/ 	c #FEFEDC",
"( 	c #EAE694",
"_ 	c #B2B26C",
": 	c #02026C",
"< 	c #A6A624",
"[ 	c #828254",
"} 	c #E20204",
"| 	c #827E5C",
"1 	c #D2D2AC",
"2 	c #E6E6E4",
"3 	c #EEEA94",
"4 	c #9E9E64",
"5 	c #FAEEBC",
"6 	c #C6C274",
"7 	c #CAC64C",
"8 	c #E6E2A4",
"9 	c #F6F29C",
"0 	c #B69A6C",
"a 	c #BEBA6C",
"b 	c #E2DA9C",
"c 	c #F6F2BC",
"d 	c #F6F2A4",
"e 	c #F6F274",
"f 	c #A6A284",
"g 	c #A2A264",
"h 	c #E60204",
"i 	c #BEBA94",
"j 	c #F6F6F4",
"k 	c #CECA7C",
"l 	c #827E54",
"m 	c #FEFA7C",
"n 	c #E2E28C",
"o 	c #F6F6BC",
"p 	c #9A9A7C",
"q 	c #CAC25C",
"r 	c #FAF6A4",
"s 	c #FEFEE4",
"t 	c #968A44",
"u 	c #D6D68C",
"v 	c #FEFAAC",
"w 	c #F20204",
"x 	c #B2A654",
"y 	c #B6B28C",
"z 	c #BAB254",
"A 	c #C2BE84",
"B 	c #C2C29C",
"C 	c #F6F6CC",
"D 	c #7A7614",
"E 	c #AAA66C",
"F 	c #BEBE64",
"G 	c #8E8E5C",
"H 	c #FEFEBC",
"I 	c #B6B27C",
"J 	c #D2CE94",
"K 	c #FAF68C",
"L 	c #8E8A1C",
"M 	c #DED264",
"N 	c #D2D2D4",
"O 	c #DACA8C",
"P 	c #BEBA74",
"Q 	c #AEAE6C",
"R 	c #FAFAFC",
"S 	c #A29A4C",
"T 	c #B6B66C",
"U 	c #FAFA9C",
"V 	c #DAD67C",
"W 	c #F60204",
"X 	c #EAE6B4",
"Y 	c #827E1C",
"Z 	c #FEFAB4",
"` 	c #FAFAA4",
" .	c #C6BE44",
"..	c #AAA23C",
"+.	c #9A9A64",
"@.	c #EEDE9C",
"#.	c #FEFAC4",
"$.	c #CECE7C",
"%.	c #E6D66C",
"&.	c #FEFECC",
"*.	c #C2C27C",
"=.	c #B2B264",
"-.	c #86865C",
";.	c #F2EE84",
">.	c #6A6A14",
",.	c #FAEE9C",
"'.	c #AEA26C",
").	c #FEFEFC",
"!.	c #E2DE84",
"~.	c #B6AE7C",
"{.	c #E2DE94",
"].	c #B6B674",
"^.	c #CAC284",
"/.	c #B6B274",
"(.	c #EAE6BC",
"_.	c #BEBE74",
":.	c #B6B65C",
"<.	c #F2F27C",
"[.	c #FAFA84",
"}.	c #CECE6C",
"|.	c #02027C",
"1.	c #DEDEAC",
"2.	c #FE0204",
"3.	c #AEAA8C",
"4.	c #B6AE54",
"5.	c #FEFEA4",
"6.	c #F6F2CC",
"7.	c #FEFEAC",
"8.	c #C6BA84",
"9.	c #FEFEC4",
"0.	c #FEFE84",
"a.	c #BEBE7C",
"b.	c #E2E274",
"c.	c #B6B67C",
"d.	c #FAF69C",
"e.	c #AAAA6C",
"f.	c #76721C",
"g.	c #766E1C",
"h.	c #EADA94",
"i.	c #DACE94",
"j.	c #CECE84",
"k.	c #B6B25C",
"l.	c #9E8E4C",
"m.	c #CECE74",
"n.	c #E2E27C",
"o.	c #928E1C",
"p.	c #FEFE9C",
"q.	c #FEFEB4",
"r.	c #BEBE6C",
"s.	c #E6E29C",
"t.	c #F2F284",
"u.	c #E6DA6C",
"v.	c #8A8A5C",
"w.	c #B6B26C",
"x.	c #BAB66C",
"y.	c #7E7A14",
"z.	c #929264",
"A.	c #F6F6C4",
"B.	c #867E1C",
"C.	c #FEFA84",
"D.	c #B2AE6C",
"E.	c #C2BE6C",
"F.	c #726E1C",
"G.	c #A6A684",
"H.	c #CAC67C",
"I.	c #E2E2B4",
"J.	c #CECA84",
"K.	c #8A865C",
"L.	c #A29E6C",
"M.	c #9E9A84",
"N.	c #B6B264",
"O.	c #B2AE74",
"P.	c #D2CE84",
"Q.	c #D2CE74",
"R.	c #82825C",
"S.	c #F6F2AC",
"T.	c #BABA7C",
"U.	c #B6B664",
"V.	c #7E7A1C",
"W.	c #EEEE9C",
"X.	c #AEA63C",
"Y.	c #CEC64C",
"Z.	c #BAB674",
"`.	c #AEAA6C",
" +	c #6A6214",
".+	c #CABA84",
"++	c #E6E27C",
"@+	c #EAE69C",
"#+	c #A2A26C",
"$+	c #BEBA9C",
"%+	c #C2C284",
"&+	c #E2DEB4",
"*+	c #A6A68C",
"=+	c #CAC684",
"-+	c #86821C",
";+	c #767214",
">+	c #A29E64",
",+	c #E6E28C",
"'+	c #9E9A7C",
")+	c #928E5C",
"!+	c #C2BE7C",
"~+	c #F6F284",
"{+	c #96925C",
"]+	c #FAF6BC",
"^+	c #C2BE64",
"/+	c #FEFAA4",
"(+	c #F6F27C",
"_+	c #D2CE6C",
":+	c #E6E274",
"<+	c #969264",
"[+	c #FAF6C4",
"                                                                                                ",
"                                    . .                                                         ",
"                                    . h.. .                                                     ",
"                                  . .+3 5 H.. .                                                 ",
"                                  . c &.! &.5 H.. . .                                           ",
"                                  . ! / ! ! ! ! &.b H.. . . .                                   ",
"                                . .+! / / / ! ! ! &.&.#.b H.0 . . . .                           ",
"                                . 5 s / / / / / ! ! ! &.&.9.9.Z b H.0 . . . .                   ",
"                              . 8.s s s s s s s / ! / &.! #.&.9.H q.Z v b H.0 . . . .           ",
"            . . . . . . . . . . . . . . . . . . . . . . ! &.9.9.9.Z q.q.7.5.5./+b H.0 . .       ",
"            . . . . . . . . . . . . . . . . . . . . . . 6.6.[+#.9.9.H q.q.v 5.5.p.U O < .       ",
"            . . . . . . . . . . . . . . . . . . . . . . > I.(.c Z H H Z q.7.7.5.p.p.u o..       ",
"            . . . . . . . . . . . . . . . . . . . . . . $+B 1 (.[+Z 9.Z q.7./+5./+/+u.o..       ",
"            . . . . . . . . . . . . . . . . . . . . . . *+3.A > c 9.H q.q.v 7./+p.p.Y.$ .       ",
"            . 2.2.2.2.2.2.2.2.2.2.2.2.2.2.2.2.2.2.2.2.. p *+$+1.c Z 9.Z q.7.7.5.p.p.$ .         ",
"            . 2.2.2.2.2.2.2.. . . . . . . . . . . . . . . . . . . . . q.q.7.7.5.5.p.$ .         ",
"            . 2.2.2.2.2.2.2.. ).|.|.|.|.|.|.).2.2.2.).|.|.|.|.|.2.2.. Z Z v /+/+/+h.Y .         ",
"            . 2.2.2.2.2.2.2.. 2.).).- - - - ).2.2.2.).- - - 2.2.).).. S.d d r U p.u.o..         ",
"            . + + + + + + + . - 2.2.).).|.- ).2.2.2.).|.2.2.).).- |.. 8 s.@+3 d U Y.Y .         ",
"            . + + + + + + + . |.|.|.2.2.).|.).2.2.2.).2.).).|.- |.- . j.J J n 3 K $ .           ",
"            . + + + + + + + . ).).).).).).).).2.2.2.).).).).).).).).. %+%+=+u ( J y..           ",
"            . + + + + + + + . 2.2.2.2.2.2.2.2.2.2.2.2.2.2.2.2.2.2.2.. y T.%+j.n M $ .           ",
"            . . . . . . . . . 2.2.2.2.2.2.2.2.2.2.2.2.2.2.2.2.2.2.2.. I I !+J n  .y..           ",
"              . '.~.f p p p . 2.2.2.2.2.2.2.2.2.2.2.2.2.2.2.2.2.2.2.. I ].a.J.!.L .             ",
"  . . . . . . . . . . . . . . . . . . . . . . . 2.2.).).).).).).).).. _ I _.P.A y..             ",
"  . 2.2.2.2.2.2.2.2.2.2.2.2.2.2.2.2.2.2.2.2.2.. 2.2.R |.R 2.2.- |.- . I ].a.J.q L .             ",
"  . 2.2.2.2.2.2.2.2.2.2.2.2.2.2.2.2.2.2.2.2.2.. w W j |.' j R 2.2.|.. /.Z.E.P.# D .             ",
"  . 2.2.2.2.2.2.).).).).2.2.2.2.2.2.2.2.2.2.2.. h } 2 ' ' |.' R ).2.. _ /._.] Y .               ",
"  . 2.2.2.2.).).).).).).).2.2.2.2.2.2.2.2.2.2.. { { N : : ' ' |.|.).. _ /._.I Y .               ",
"  . 2.2.2.2.).).).2.2.2.2.).2.2.2.2.2.2.2.2.2.. . . . . . . . . . . . w.x.a 4.;+.               ",
"  . 2.2.2.).).).2.2.2.2.2.2.2.2.).2.2.2.2.2.2.. l l l l -.)+4 e.Q D._ w.x.E...F..               ",
"  . 2.2.2.).).).2.2.2.2.2.2.2.).).).2.2.2.2.2.. | | | R.K.<+#+`./.T w.w.x.E.& .                 ",
"  . 2.2.2.).).).2.2.2.2.2.2.2.2.).2.2.2.2.2.2.. -.-.-.v.G +.e.w.Z.E._.r.6 4., .                 ",
"  . 2.2.2.).).).2.2.2.2.2.2.2.2.2.2.2.2.2.2.2.. G G )+^ +.E /.6 k k ] ] m.X.@ .                 ",
"  . 2.2.2.2.).).).2.2.2.2.).2.2.2.2.2.2.2.2.2.. >+4 >+g E x.k V !.* ++* n.-+.                   ",
"  . 2.2.2.2.).).).).).).).2.2.2.2.2.2.2.2.2.2.. e.e.e.`.N.*.V ++3 t.~+~+M y..                   ",
"  . 2.2.2.2.2.2.).).).).2.2.2.2.2.2.2.2.2.2.2.. Q Q =.N.a ] * ;.K K C.K 7 F..                   ",
"  . 2.2.2.2.2.2.2.2.2.2.2.2.2.2.2.2.2.2.2.2.2.. 4.D.D.U.a ] * ;.K [.m u.B..                     ",
"  . 2.2.2.2.2.2.2.2.2.2.2.2.2.2.2.2.2.2.2.2.2.. N.=.D.:.a }.b.<.m 0.0.Y.g..                     ",
"  . . . . . . . . . . . . . . . . . . . . . . . 4.=.k.N.F ] * ;.[.m u.% .                       ",
"                            . . . . . . . @ = & t S k.k.F }.:+e m 0.Y.;+.                       ",
"                                  . . . . . . . @ & >.l.x 8.O e @.u.B..                         ",
"                                          . . . . . . @ F., ; ) M Y.g..                         ",
"                                                      . . . . , ;+;+.                           ",
"                                                              . . . .                           ",
"                                                                                                ",
"                                                                                                ",
"                                                                                                "};
