/* XPM */
static char*append[]={
"20 20 6 1",
"# c #000000",
". c None",
"d c #ffff00",
"b c #c0ffff",
"c c #00c000",
"a c #ffffff",
"....................",
"....................",
"..#############.....",
"..#aaa#aaa#aaa#.....",
"..#aaa#aaa#aaa#.....",
"..#############.....",
"..#aaa#baa#aaa#.....",
"..#aaa#aaa#aaa#.....",
"..#############.....",
"..#ccc#ccc#ccc#.....",
"..#ccc#ccc#cc##.....",
"..########d##d#.d...",
"...........d#d#d....",
"...........#ddd#....",
".........#ddd#ddd#..",
"...........#ddd#....",
"...........d#d#d....",
"..........d..d..d...",
".............#......",
"...................."};
