/* XPM */
static char*append[]={
"20 20 6 1",
"# c #000000",
". c None",
"a c #ffff00",
"d c #c0ffff",
"c c #00c000",
"b c #ffffff",
"....................",
"....................",
".............#......",
"..........a..a..a...",
"...........a#a#a....",
"...........#aaa#....",
".........#aaa#aaa#..",
"...........#aaa#....",
"...........a#a#a....",
"..########a##a#.a...",
"..#bbb#bbb#cca#.....",
"..#bbb#bbb#ccc#.....",
"..#############.....",
"..#bbb#dbb#ccc#.....",
"..#bbb#bbb#ccc#.....",
"..#############.....",
"..#bbb#bbb#ccc#.....",
"..#bbb#bbb#ccc#.....",
"..#############.....",
"...................."};
