/* XPM */
static char * cleanup_xpm[] = {
"16 16 24 1",
" 	c None",
".	c #000000",
"+	c #7D4D02",
"@	c #FFFFC0",
"#	c #FFFFFF",
"$	c #C0C000",
"%	c #7A4D02",
"&	c #7A4E02",
"*	c #7F5106",
"=	c #CC810E",
"-	c #83540E",
";	c #896125",
">	c #7B4D02",
",	c #E9991F",
"'	c #FFB440",
")	c #CD8518",
"!	c #D18715",
"~	c #D38817",
"{	c #6F5305",
"]	c #735003",
"^	c #D48918",
"/	c #D0881C",
"(	c #DE9019",
"_	c #E0921B",
"      ..    ++  ",
"      .@... ++  ",
"     .@#@#@.++  ",
"     .#####@++..",
"    .@####@#++@.",
"    .@###@#@++@.",
"   .@#@#@#@#++@.",
"   .#@#@#@#@++$.",
"  .#@#@#@#@%++& ",
" .@@#@@@#@*=-=;>",
".@@@@#@#@+,')',+",
".$@@@@@@#+,'!',+",
" ..$@@@@@%,'~',{",
"   ...$@@],'^',{",
"      ..{/{({_{ ",
"       {/{/{/{  "};
