/* XPM */
static char * conf_save_xpm[] = {
"22 22 13 1",
" 	c None",
".	c #000000",
"+	c #0000CC",
"@	c #FFFFFF",
"#	c #DCDCDC",
"$	c #A0A0A0",
"%	c #C3C3C3",
"&	c #000066",
"*	c #808080",
"=	c #FFA858",
"-	c #FFDCA8",
";	c #FFFFC0",
">	c #585858",
"                      ",
"        ............. ",
"        .+@@@@@@@@++. ",
"        .+@.....@@++. ",
"        .+@@@@@@@@++. ",
"        .+@...@@@@++. ",
"        .+@@@@@@@@++. ",
"       ..+@@@@@@@@++. ",
"   .. .##.+..+++++++. ",
"  .#$.$%%$.$#.&&&&&+. ",
"  .$#*$==$*#$.&&&&&+. ",
"   .*==-=-=*.%%%%&&+. ",
" ..#$=-**=-$#..&%&&+. ",
".#%$=-=$$-;=$%#.%&&+. ",
".*$#*-;--@;*#$*...... ",
" .>>#*-;@-*#>>.       ",
"  .*%##**##%*.        ",
" .$@*>*##*>*@$.       ",
" .#$>..$$..>$#.       ",
"  ... .#@. ...        ",
"      .>*.            ",
"       ..             "};
