/* XPM */
static char*delete[]={
"20 20 6 1",
"a c #cecece",
"b c #000000",
". c None",
"d c #c0ffff",
"c c #ffffff",
"# c #ff0000",
"....................",
"...........##..##...",
"...........##.###...",
"............####....",
".............##.....",
"............###.....",
"...........##..#....",
"...........#...#....",
"..aaaaaaaaaaaaa.....",
"..bbbbbbbbbbbbb.....",
"..bcccbcccb###b.....",
"..bcccbcccb###b.....",
"..bbbbbbbbbbbbb.....",
"..bcccbdccb###b.....",
"..bcccbcccb###b.....",
"..bbbbbbbbbbbbb.....",
"..bcccbcccb###b.....",
"..bcccbcccb###b.....",
"..bbbbbbbbbbbbb.....",
"............a...a..."};
