/* XPM */
static char*delete[]={
"20 20 5 1",
"# c #000000",
". c None",
"b c #c0ffff",
"a c #ffffff",
"c c #ff0000",
"....................",
"....................",
"..#############.....",
"..#aaa#aaa#aaa#.....",
"..#aaa#aaa#aaa#.....",
"..#############.....",
"..#aaa#baa#aaa#.....",
"..#aaa#aaa#aaa#.....",
"..#############.....",
"..#ccc#ccc#ccc#.....",
"..#ccc#ccc#ccc#.....",
"..#############.....",
"....................",
"...........cc..cc...",
"...........cc.ccc...",
"............cccc....",
".............cc.....",
"............ccc.....",
"...........cc..c....",
"...........c...c...."};
