/* XPM */
static char*flags[]={
"22 22 10 1",
"b c #cecece",
"h c #ff6d6d",
". c #000000",
"f c #0000c0",
"# c None",
"c c #ffff00",
"d c #00c000",
"e c #ffffff",
"a c #ff0000",
"g c #ff1010",
"............##########",
"............##########",
"aaaaaaaaaaaa##########",
"aaaaaaaaaaaa#bb#######",
"cccccccccccc#bbbb#####",
"cccddddeeeeaaaab######",
"###ddddeeeeaaaab######",
"###ddddeeeeaaaab######",
"###ddddeeeeaaaa#######",
"###ddddeeeeaaaabb#####",
"###ddddfffccfffffff###",
"#######fffccfffffff###",
"#######cccccccccccc###",
"#######cccccccccccc###",
"#######fffccfffffff###",
"#######fffccfffffff###",
"#######bb#aaaaaaaaaaaa",
"#######bb#agheeaaaaaaa",
"########b#aheaaaeaaaaa",
"##########aheaaaaaaaaa",
"##########aaheeaaaaaaa",
"##########aaaaaaaaaaaa"};
