/* XPM */
static char * kvoctrain_xpm[] = {
"32 33 172 2",
"  	c None",
". 	c #020204",
"+ 	c #D2C694",
"@ 	c #FEFAD0",
"# 	c #FEFED7",
"$ 	c #D2CE8E",
"% 	c #CDBF90",
"& 	c #FEFEE6",
"* 	c #FEFEDE",
"= 	c #E4E09C",
"- 	c #BCA278",
"; 	c #FEFADE",
"> 	c #FEFAB2",
", 	c #4C4C4C",
"' 	c #FAFAD3",
") 	c #FBFBD4",
"! 	c #FDFDDD",
"~ 	c #FEFED0",
"{ 	c #FAF6B2",
"] 	c #000000",
"^ 	c #DDDDBB",
"/ 	c #E5E5C1",
"( 	c #F5F5C8",
"_ 	c #FDFDCF",
": 	c #FEFEC8",
"< 	c #FEFEBA",
"[ 	c #FAFABA",
"} 	c #A5A591",
"| 	c #BCBC9F",
"1 	c #E5E5BB",
"2 	c #FBFBC5",
"3 	c #FEFEC1",
"4 	c #FEFEB2",
"5 	c #FEFEAB",
"6 	c #FAEFB2",
"7 	c #D9D25A",
"8 	c #898978",
"9 	c #A6A68C",
"0 	c #DDDDB5",
"a 	c #FAFACC",
"b 	c #FAF39C",
"c 	c #A59E3D",
"d 	c #FF0000",
"e 	c #848473",
"f 	c #A2A289",
"g 	c #DBDBB3",
"h 	c #FAFAC4",
"i 	c #FEFEAF",
"j 	c #777627",
"k 	c #F9F9CB",
"l 	c #F6F39C",
"m 	c #FFFF00",
"n 	c #FAFABD",
"o 	c #FBFBB7",
"p 	c #FDFDB1",
"q 	c #E0DD78",
"r 	c #008000",
"s 	c #FFFFFF",
"t 	c #DDDDA8",
"u 	c #E5E5AE",
"v 	c #F5F5AB",
"w 	c #FDFDB9",
"x 	c #FEF69C",
"y 	c #A5A579",
"z 	c #BCBC89",
"A 	c #E5E5A0",
"B 	c #FBFBAF",
"C 	c #E8E89C",
"D 	c #898968",
"E 	c #A6A679",
"F 	c #DDDD9A",
"G 	c #FAFAAF",
"H 	c #FEFAA1",
"I 	c #010103",
"J 	c #867D5E",
"K 	c #898974",
"L 	c #848470",
"M 	c #848461",
"N 	c #A2A271",
"O 	c #DBDB93",
"P 	c #EBE89C",
"Q 	c #BCBC9B",
"R 	c #A7A789",
"S 	c #A3A385",
"T 	c #A3A38A",
"U 	c #FAF6BD",
"V 	c #FBFBFB",
"W 	c #FC0000",
"X 	c #FE0000",
"Y 	c #84845C",
"Z 	c #F6EFA1",
"` 	c #DDDDDD",
" .	c #E60000",
"..	c #F60000",
"+.	c #A2A26D",
"@.	c #DBDB99",
"#.	c #E0DC67",
"$.	c #7A792A",
"%.	c #A6A6A6",
"&.	c #BD0000",
"*.	c #848459",
"=.	c #DBD799",
"-.	c #BCB951",
";.	c #292929",
">.	c #313131",
",.	c #424242",
"'.	c #4A4A4A",
").	c #A2A268",
"!.	c #DBD78D",
"~.	c #A29B3C",
"{.	c #454534",
"].	c #54543A",
"^.	c #71714F",
"/.	c #818157",
"(.	c #848455",
"_.	c #888858",
":.	c #A6A66B",
"<.	c #CBC974",
"[.	c #787729",
"}.	c #84812E",
"|.	c #55553B",
"1.	c #676749",
"2.	c #8B8B5E",
"3.	c #9F9F6B",
"4.	c #A6A666",
"5.	c #BCBC73",
"6.	c #C0BD5E",
"7.	c #727250",
"8.	c #8B8B5D",
"9.	c #BCBC7E",
"0.	c #D6D68A",
"a.	c #DBDB8D",
"b.	c #DCDC87",
"c.	c #E5E186",
"d.	c #B8B550",
"e.	c #818154",
"f.	c #9F9F66",
"g.	c #D5D589",
"h.	c #F4F49C",
"i.	c #F9F998",
"j.	c #FAFAA1",
"k.	c #F3F084",
"l.	c #A49D3C",
"m.	c #848456",
"n.	c #A2A263",
"o.	c #DADA85",
"p.	c #FEFE9C",
"q.	c #FEFE95",
"r.	c #E4E069",
"s.	c #848452",
"t.	c #F9F992",
"u.	c #F6F386",
"v.	c #848451",
"w.	c #A2A25F",
"x.	c #DADA7F",
"y.	c #F9F98B",
"z.	c #FEFE8E",
"A.	c #FEFA95",
"B.	c #020203",
"C.	c #010102",
"D.	c #635D23",
"E.	c #766F36",
"F.	c #7C7C44",
"G.	c #A6A361",
"H.	c #A2A236",
"I.	c #8D8532",
"J.	c #C4C05C",
"K.	c #E5E57D",
"L.	c #FEEF95",
"M.	c #DAD566",
"N.	c #171703",
"O.	c #151503",
"                        . .                                     ",
"                        . + . .                                 ",
"                        . @ # $ . . .                           ",
"                      . % & * * = $ - . . . .                   ",
"                      . @ & * ; # # & # > % - . . . .           ",
"        , , , , , , , , , , , , , , , ' ) ! ~ { = $ - . . .     ",
"        , ] ] ] ] ] ] ] ] ] ] ] ] ] , ^ / ( _ : < < [ = $ - . . ",
"        , ] ] ] ] ] ] ] ] ] ] ] ] ] , } | 1 2 : 3 < 4 4 5 6 7 . ",
"        , ] ] ] ] ] ] ] ] ] ] ] ] ] , 8 9 0 a : 3 < < 4 5 b c . ",
"        , d d d d d d d d d d d d d , e f g h : 3 < 4 4 5 i j . ",
"        , d d d d d d d d d d d d d , e f g k : 3 3 4 4 4 l .   ",
"        , m m m m m , , , , , , , , , , , , , , n o p 5 > q .   ",
"        , m m m m m , r r r r s s s s d d d d , t u v w x 7 .   ",
"        , m m m m m , r r r r s s s s d d d d , y z A B C c .   ",
"        , , , , , , , r r r r s s s s d d d d , D E F G H j .   ",
"          I J K L L , r r r r s s s s d d d d , M N O G P .     ",
"          I Q R S T , r r r r s s s s d d d d , M N O U 7 .     ",
"    , , , , , , , , , , , , , , , , V W X d d , Y N O Z c .     ",
"    , d d d d d d d d d d d d d d , `  ...X d , Y +.@.#.$..     ",
"    , d d d d s s s d d d d d d d , %.&. .W d , *.+.=.-..       ",
"    , d d d s s s s d d s d d d d , ;.>.,.'., , *.).!.~.. .     ",
"  . , d d s s d d d d s s s d d d , {.].^./.*.(._.:.<.[.. . . . ",
". }., d d s s d d d d d s d d d d , |.1.2.3.+.).4.5.6.I . . . . ",
"  . , d d s s d d d d d d d d d d , 7.8.9.0.a.a.b.c.d.I . . .   ",
"    , d d d s s s s d d d d d d d , e.f.g.h.i.i.j.k.l.. . .     ",
"    , d d d d s s s d d d d d d d , m.n.o.i.p.q.p.r.j . . .     ",
"    , d d d d d d d d d d d d d d , s.n.o.t.q.q.u.c . . .       ",
"    , , , , , , , , , , , , , , , , v.w.x.y.z.A.7 j . .         ",
"                          B.B.C.D.E.F.G.b.t.A.u.H.. .           ",
"                                C.C.C.I.J.K.L.M.j .             ",
"                                      N.O.I H.$..               ",
"                                            . .                 ",
"                                                                "};
