/* XPM */
static char*list[]={
"24 24 8 1",
"a c #808080",
"e c #000080",
"d c #0000be",
"c c #c0c0c0",
". c #000000",
"b c #0000ff",
"f c #a0a0a4",
"# c #ffffff",
"........................",
".#####################a.",
".#.......bbbbbb.......a.",
".#.#c.#c.dddddd.#c.#c.a.",
".#.ca.ca.eeeeee.ca.ca.a.",
".#.......eeeeee.......a.",
".#cccccccccccccccccccca.",
".#cccccccccccccccccccca.",
".#aaaaaaaaaaaaaaaaaaaca.",
".#a..................#a.",
".#a.#############.#c.#a.",
".#a.#############.ca.#a.",
".#a.#############....#a.",
".#a.#############.ff.#a.",
".#a.#############.ff.#a.",
".#a.#############.ff.#a.",
".#a.#############.ff.#a.",
".#a.#############....#a.",
".#a.#############.#c.#a.",
".#a.#############.ca.#a.",
".#a..................#a.",
".#####################a.",
".aaaaaaaaaaaaaaaaaaaaaa.",
"........................"};
