/* XPM */
static char * mini_kvoctrain_xpm[] = {
"16 16 9 1",
" 	c None",
".	c #000000",
"+	c #FFFFC0",
"@	c #FFFFFF",
"#	c #383737",
"$	c #C0C000",
"%	c #FF0000",
"&	c #FFFF00",
"*	c #008000",
"      ..        ",
"      .+...     ",
"     .+@+@+...  ",
"     .@@@@@+@+..",
"    .+@@@@+@+@+.",
" ############++.",
" #..........#++.",
" #..........#+$.",
" #%%%%%%%%%%#+. ",
" #%%%###########",
".#&&&#***@@@%%%#",
".#&&&#***@@@%%%#",
" #####***@@@%%%#",
"   ..#***@@@%%%#",
"     #***@@@%%%#",
"     ###########"};
