/* XPM */
static char*pron[]={
"24 24 7 1",
"a c #808080",
"e c #000080",
"d c #0000be",
"c c #c0c0c0",
". c #000000",
"b c #0000ff",
"# c #ffffff",
"........................",
".#####################a.",
".#.......bbbbbb.......a.",
".#.#c.#c.dddddd.#c.#c.a.",
".#.ca.ca.eeeeee.ca.ca.a.",
".#.......eeeeee.......a.",
".#cccccccccccccccccccca.",
".#cccccccccccccccccccca.",
".#cc................cca.",
".#cc.#c.#c.#c.#c.#c.cca.",
".#cc.ca.ca.ca.ca.ca.cca.",
".#cc................cca.",
".#cc.#c.#c.#c.#c.#c.cca.",
".#cc.ca.ca.ca.ca.ca.cca.",
".#cc................cca.",
".#cc.#c.#c.#c.#c.#c.cca.",
".#cc.ca.ca.ca.ca.ca.cca.",
".#cc................cca.",
".#cc.#c.#c.#c.#c.#c.cca.",
".#cc.ca.ca.ca.ca.ca.cca.",
".#cc................cca.",
".#cccccccccccccccccccca.",
".aaaaaaaaaaaaaaaaaaaaaa.",
"........................"};
