/* XPM */
static char * query_conf_xpm[] = {
"22 22 20 1",
" 	c None",
".	c #000080",
"+	c #585858",
"@	c #000000",
"#	c #DCDCDC",
"$	c #010101",
"%	c #52525A",
"&	c #A0A0A0",
"*	c #C3C3C3",
"=	c #3E3E63",
"-	c #808080",
";	c #FFA858",
">	c #9F9F9F",
",	c #FFDCA8",
"'	c #000003",
")	c #DBDBDB",
"!	c #000018",
"~	c #FFFFC0",
"{	c #000001",
"]	c #FFFFFF",
"                      ",
"              .....+  ",
"             ..  +..+ ",
"            ..+   ... ",
"            ..+   ... ",
"            +..  +..+ ",
"                 ..+  ",
"       @@       ..+   ",
"   @@ @##@ @$ %..+    ",
"  @#&@&**&@&#@=..+    ",
"  @&#-&;;&-#>@        ",
"   @-;;,;,;-' ....    ",
" @@#&;,--;,&)@!..     ",
"@#*&;,;&&,~;&*#{      ",
"@-&#-,~,,]~-#&-@      ",
" @++#-,~],-#++@       ",
"  @-*##--##*-@        ",
" @&]-+-##-+-]&@       ",
" @#&+@@&&@@+&#@       ",
"  @@@ @#]@ @@@        ",
"      @+-@            ",
"       @@             "};
