/* XPM */
static char*rand[]={
"20 20 7 1",
"a c #c3c3c3",
"b c #00ffff",
"# c #000000",
". c None",
"e c #303030",
"c c #c0ffff",
"d c #ffffff",
".#############......",
".#aaa#bbb#bbb#......",
".#aaa#bbb#bbb#.###..",
".#############....#.",
".#aaa#cdd#ddd#....#.",
".#aaa#ddd#ddd#....#.",
".#############....#.",
".#aaa#bbb#bbb#.##.#.",
".#aaa#bbb#bbb#...##.",
".#############....#.",
".#aaa#ddd#ddd#....#.",
".#aaa#ddd#ddd#....#.",
".#############....#.",
"..................#.",
"...e..............#.",
"..e#e.............#.",
".e###e............#.",
"...#..............#.",
"....##############..",
"...................."};
