/* XPM */
static char*reset[]={
"20 20 5 1",
"# c #000000",
". c None",
"c c #c0ffff",
"a c #ffffff",
"b c #00c0c0",
"....................",
"............###.....",
"....####...#####....",
"....####...##.##....",
"...........##.##....",
"....####...##.##....",
"....####...#####....",
"............###.....",
"....................",
"..#############.....",
"..#aaa#aaa#bbb#.....",
"..#aaa#aaa#bbb#.....",
"..#############.....",
"..#aaa#caa#bbb#.....",
"..#aaa#aaa#bbb#.....",
"..#############.....",
"..#aaa#aaa#bbb#.....",
"..#aaa#aaa#bbb#.....",
"..#############.....",
"...................."};
