/* XPM */
static char*run[]={
"16 16 6 1",
"d c #80c5f7",
"# c #fc25c3",
". c None",
"b c #f9bbf1",
"a c #0c93f9",
"c c #ffffff",
"................",
"................",
"................",
"................",
"................",
"................",
"................",
"...........###..",
".....aaa..#bcb#.",
"......aa..#ccc#.",
"..aaaa.a..#bcb#.",
".ad.da.....###..",
".a...a......#...",
".ad.da.....###..",
"..aaa.......#...",
"................"};
