/* XPM */
static char * run_verb_xpm[] = {
"16 20 175 2",
"  	c None",
". 	c #4B4A4C",
"+ 	c #323233",
"@ 	c #434344",
"# 	c #242115",
"$ 	c #947F36",
"% 	c #E1DBAA",
"& 	c #B1AC8C",
"* 	c #171616",
"= 	c #947B2B",
"- 	c #F1C843",
"; 	c #F9D64F",
"> 	c #FBE986",
", 	c #7D6D34",
"' 	c #3A3A3D",
") 	c #12100B",
"! 	c #BC992F",
"~ 	c #F7CA3F",
"{ 	c #F9CC40",
"] 	c #F5CA42",
"^ 	c #A48830",
"/ 	c #232322",
"( 	c #0B0B0A",
"_ 	c #9C7F24",
": 	c #F6C83C",
"< 	c #F8CC40",
"[ 	c #E7BC3B",
"} 	c #756125",
"| 	c #29292A",
"1 	c #080814",
"2 	c #2C250F",
"3 	c #BC9A30",
"4 	c #DFB73A",
"5 	c #8D7429",
"6 	c #1E1C15",
"7 	c #535353",
"8 	c #19192D",
"9 	c #0A0A0B",
"0 	c #221C0D",
"a 	c #14130E",
"b 	c #1D1B15",
"c 	c #141413",
"d 	c #3D3D47",
"e 	c #6F5B1A",
"f 	c #DFB330",
"g 	c #977B2B",
"h 	c #171716",
"i 	c #3B3B3C",
"j 	c #848488",
"k 	c #9B9A97",
"l 	c #969698",
"m 	c #17171D",
"n 	c #352C10",
"o 	c #D2AA2F",
"p 	c #F4C539",
"q 	c #EEC33D",
"r 	c #A98B30",
"s 	c #C9B56B",
"t 	c #ECE6BB",
"u 	c #EDE5B1",
"v 	c #403B2B",
"w 	c #4F4F52",
"x 	c #0B0B10",
"y 	c #77621E",
"z 	c #E7BA32",
"A 	c #F1C135",
"B 	c #F2C337",
"C 	c #F7C93D",
"D 	c #F9CD40",
"E 	c #F4C840",
"F 	c #CFAC39",
"G 	c #584A1F",
"H 	c #383838",
"I 	c #0A0909",
"J 	c #A18425",
"K 	c #ECBD31",
"L 	c #ECBD32",
"M 	c #735D1D",
"N 	c #91762C",
"O 	c #6A5822",
"P 	c #2C2717",
"Q 	c #1D1C1C",
"R 	c #191934",
"S 	c #100E0A",
"T 	c #BE9B2A",
"U 	c #EDBD31",
"V 	c #EDBE33",
"W 	c #765F1D",
"X 	c #141109",
"Y 	c #111111",
"Z 	c #171A25",
"` 	c #464E65",
" .	c #111128",
"..	c #241F0D",
"+.	c #D9B02F",
"@.	c #EDBE32",
"#.	c #EEBF34",
"$.	c #C9A22E",
"%.	c #4C401F",
"&.	c #1E2026",
"*.	c #8791A2",
"=.	c #18183B",
"-.	c #0A090B",
";.	c #846C1F",
">.	c #EEBE32",
",.	c #ECBE32",
"'.	c #F1C136",
").	c #F6C93E",
"!.	c #EEC643",
"~.	c #706439",
"{.	c #272A31",
"].	c #11122B",
"^.	c #0A0A0C",
"/.	c #635119",
"(.	c #E4B831",
"_.	c #B19029",
":.	c #443914",
"<.	c #A1842C",
"[.	c #E7BD3C",
"}.	c #F4DA5B",
"|.	c #665C34",
"1.	c #3F4046",
"2.	c #0B0A0B",
"3.	c #29230F",
"4.	c #8F7524",
"5.	c #E5B833",
"6.	c #E9BB31",
"7.	c #B8972A",
"8.	c #251E0B",
"9.	c #08080E",
"0.	c #100F0F",
"a.	c #4A3F1C",
"b.	c #C29F34",
"c.	c #E5D15E",
"d.	c #363122",
"e.	c #555556",
"f.	c #181818",
"g.	c #463913",
"h.	c #CCA62F",
"i.	c #EBBD33",
"j.	c #E1B631",
"k.	c #B08F28",
"l.	c #322A10",
"m.	c #0B0B12",
"n.	c #19193F",
"o.	c #1A1A33",
"p.	c #131319",
"q.	c #2F2918",
"r.	c #B59632",
"s.	c #F1C844",
"t.	c #937A2E",
"u.	c #2D2D2C",
"v.	c #1C1C22",
"w.	c #1E1A0C",
"x.	c #B08E28",
"y.	c #B8952B",
"z.	c #77601D",
"A.	c #1F1A0C",
"B.	c #52535B",
"C.	c #202127",
"D.	c #38311A",
"E.	c #997F2C",
"F.	c #4F431D",
"G.	c #272726",
"H.	c #0B0B0C",
"I.	c #362D10",
"J.	c #201C0D",
"K.	c #0E0E0D",
"L.	c #1D1D20",
"M.	c #7D7E83",
"N.	c #1E1E1F",
"O.	c #181713",
"P.	c #28282B",
"Q.	c #292929",
"R.	c #444444",
"                . + + +         ",
"              @ # $ % & +       ",
"              * = - ; > , '     ",
"              ) ! ~ { ] ^ /     ",
"              ( _ : < [ } |     ",
"              1 2 3 4 5 6 7     ",
"            8 9 0 a b c d       ",
"            9 e f g h i j k l   ",
"          m n o p q r s t u v w ",
"          x y z A B C D E F G H ",
"          I J K L M M N O P Q   ",
"        R S T U V W X Y Z `     ",
"         ...+.@.#.@.$.%.&.*.    ",
"      =.-.;.K >.,.'.).!.~.{.    ",
"    ].^./.(.K _.:.<.[.< }.|.1.  ",
"  2.3.4.5.6.7.8.9.0.a.b.] c.d.e.",
"f.g.h.i.j.k.l.m.n.o.p.q.r.s.t.u.",
"v.w.x.y.z.A.x       B.C.D.E.F.G.",
"  H.I.J.K.L.          M.N.O.P.  ",
"    Q.R.                        "};
