/* XPM */
static char*run[]={
"16 16 3 1",
"a c #bfbbbb",
". c None",
"# c #000000",
"................",
".........##.....",
"..........#.....",
"...a#a....#.....",
"...###....#.....",
"...a#a....#.....",
".........###....",
"................",
"................",
".........###....",
".........#.#....",
"...a#a.....#....",
"...###....#.....",
"...a#a...#......",
".........###....",
"................"};
