/* XPM */
static char*run[]={
"16 16 3 1",
"# c #bfbbbb",
". c None",
"a c #000000",
"................",
"................",
"................",
"................",
"................",
"................",
"................",
"................",
"................",
"................",
"................",
".#a#....a...aa..",
".aaa.aaaaa.a..a.",
".#a#....a..a..a.",
"............aaaa",
"................"};
