/* XPM */
static char*run[]={
"22 22 5 1",
"c c #00ff00",
"b c #404000",
"# c #000000",
". c None",
"a c #800000",
"......................",
"......................",
"......................",
"........#######.......",
"......###########.....",
".......###aaa###......",
".......####a####......",
".......#########......",
"........#######.......",
"......###########.....",
".......###bbb###......",
".......####b####......",
".......#########......",
"........#######.......",
"......###########.....",
".......###ccc###......",
".......###ccc###......",
".......#########......",
"........#######.......",
"......................",
"......................",
"......................"};
