/* XPM */
static char*searchclip[]={
"16 16 9 1",
"e c #808080",
"f c #a0a0a0",
"d c #8e6235",
"g c #fefefe",
"# c #000000",
". c None",
"c c #cc9966",
"b c #ffcc99",
"a c #ffffff",
"................",
"................",
"......####......",
"..#####aa#####..",
".#bbb#a##a#bbb#.",
".#bc#aaaaaa#cd#.",
".#bc########cd#.",
".#bcccce##eccd#.",
".#bccce#aa#ecd#.",
".#bccc#afag#cd#.",
".#bccc#aaag#cd#.",
".#bccce#aa#ecd#.",
".#ddddde###ddd#.",
"..############..",
"...........##...",
"............##.."};
