/* XPM */
static char*sf[]={
"20 20 103 2",
".k c #0c0404",
"#a c #070f0a",
".W c #377d50",
".e c #0c0c0c",
".H c #316d46",
"## c #768f11",
".n c #842222",
".O c #122619",
".D c #42945f",
"#v c #60ba80",
"#p c #aadabb",
".0 c #234d32",
".r c #2c0c0c",
".S c #2e0c0c",
"#s c #429660",
".b c #3b4709",
".f c #771f1f",
".4 c #398152",
".J c #1f0909",
".o c #7f9a12",
"#E c #1a3a25",
".B c #0c1a11",
"#j c #4daf70",
".x c #6a1c1c",
"#l c #142c1c",
".m c #882424",
"#d c #09130d",
".l c #320e0e",
".h c #9a9a9a",
"#D c #9cd4b0",
"#g c #7c9612",
".2 c #306c45",
".s c #7d2121",
".Q c #7f2121",
"#o c #4d5d0b",
"#c c #112518",
".u c #521616",
"#H c #5cb87c",
".j c #515151",
"#C c #33734a",
"#h c #030504",
".z c #ca3434",
".I c #cc3434",
".c c #000000",
".L c #49a569",
".M c #3b8555",
"#m c #388051",
"#k c #3e8c5a",
".T c #0e1e14",
".F c #1e0808",
"#e c #49a76a",
"#B c #2a603d",
"#. c #789212",
".i c #565656",
".g c #101303",
"#u c #c3e5cf",
".t c #651b1b",
".a c #949494",
"#z c #1c4029",
"#G c #050906",
".d c #282828",
"#F c #132b1b",
"#r c #657b0f",
".P c #193724",
".q c #852323",
".v c #35794d",
"#J c #364208",
".V c #163220",
"#n c #275939",
"#I c #d5eddd",
".C c #21492f",
".p c #999999",
"#K c #52640c",
".Z c #13291b",
"#y c #64790f",
".Y c #1e442b",
"#f c #245034",
"#t c #93d1a9",
".A c #7a2020",
".E c #7c2020",
"Qt c None",
"#A c #3a8253",
".U c #020403",
".7 c #1b3b26",
".5 c #4ba96c",
".1 c #3f4d09",
".K c #2c623f",
"#b c #48a468",
".8 c #4eb071",
".y c #6d1d1d",
"#w c #1b3d27",
".G c #4bab6d",
".# c #2a2a2a",
".w c #2c6440",
"#x c #152d1d",
"#i c #459b63",
"#q c #b5dfc4",
".R c #1b0707",
".X c #3d8b59",
".9 c #377b4f",
".6 c #34764b",
".N c #040805",
".3 c #0a140e",
"QtQtQtQtQtQtQtQtQtQtQtQtQtQtQtQtQtQtQtQt",
"QtQt.#.aQtQtQtQtQt.bQtQtQtQtQtQtQtQtQtQt",
"QtQtQt.c.cQtQtQtQtQt.bQtQtQtQtQtQtQtQtQt",
".dQtQtQt.c.e.fQtQtQt.b.gQtQtQtQtQtQtQtQt",
".h.iQtQt.j.k.l.m.nQt.oQt.cQtQtQtQtQtQtQt",
"Qt.c.c.p.q.r.s.t.u.v.wQt.cQtQtQtQtQtQtQt",
"QtQt.c.x.u.y.z.z.A.B.C.D.cQtQtQtQtQtQtQt",
"QtQtQt.E.t.z.z.z.F.G.H.c.c.c.cQtQtQtQtQt",
"QtQtQt.q.t.z.z.I.J.K.L.M.w.N.O.P.bQtQtQt",
"QtQtQt.Q.R.S.J.T.U.V.W.G.X.w.Y.Z.0.1QtQt",
".bQtQtQt.2.3.4.5.6.7.V.w.8.9.4.YQt.1QtQt",
"Qt.b#.##.C#a.w#b.8.6#c#d.6#e#b#fQt#gQtQt",
"QtQt.gQtQt.b#h.w#i#j#k#l.c#m#e#nQt.1QtQt",
"QtQtQt#o.c.c.c.c.D.8#p#q.c.c.6#nQt#rQtQt",
"QtQtQtQtQtQt.c.c#s.8#t#u#v.T#w#xQtQt.gQt",
"QtQtQtQtQtQtQt#y#z#k.W#A.2#B#C#s#DQtQtQt",
"QtQtQtQtQtQtQtQt.O#E#F.O#G#G#H#IQtQtQtQt",
"QtQtQtQtQtQtQtQt#J#KQtQtQtQt#DQtQtQtQtQt",
"QtQtQtQtQtQtQtQtQt.b.b.b.bQtQtQtQtQtQtQt",
"QtQtQtQtQtQtQtQtQtQtQtQtQt.bQtQtQtQtQtQt"};
