/* XPM */
static char*sf[]={
"20 20 27 1",
"j c #c7cec3",
"s c #6c7a63",
"k c #d2d7ce",
"p c #b8c1b2",
"l c #ccd3c8",
"b c #cfd7cf",
"e c #c9d0c5",
"f c #d4d9d0",
"t c #a6b19e",
"# c #000000",
"q c #7a8a6f",
"y c #6b7962",
"u c #626f5a",
"o c #eff1ee",
"n c #b7c0b1",
"h c #7f8f74",
"c c #e0e4dd",
"m c #c8cfc4",
"v c #6d7b64",
"r c #d3d8cf",
". c None",
"g c #b9c2b3",
"w c #6a7861",
"d c #839279",
"a c #ffffff",
"x c #d8ddd4",
"i c #000100",
"....................",
"....................",
"....................",
"....................",
".........#..###.....",
"........#a#.#b#.....",
".......#acd##e#.....",
"......#aafghij#.....",
".....#aaklmnhm#.....",
"....#oakmmmepq#.....",
"...#aarmmemmmps#....",
"..#aaaemmemjjjtu#...",
".###aammmmjjjjv###..",
"...#aaemjjjjjjs#....",
"...#aa####jjjjs#....",
"...#aa#jj#jjjms#....",
"...#aa#mm#mmmjw#....",
"...#ax#ll#mmjjy#....",
"...#ev#ss#sswys#....",
"...#############...."};
