/* XPM */
static char*sf[]={
"20 20 116 2",
".K c #ebe9e3",
"#A c #91908a",
"#U c #cfcec8",
"#Q c #e9e8e0",
".h c #f2f2ee",
".G c #f3f2ee",
".y c #bdbcb8",
".6 c #797976",
"#B c #eeece7",
"#m c #ecebe4",
".r c #f5f5f2",
".X c #f6f5f2",
".d c #bfbfbc",
"#q c #e7e5dd",
".j c #f0efeb",
"#C c #62615f",
".R c #efeee8",
".o c #f8f8f6",
".2 c #92918e",
".n c #b5b5b4",
".5 c #4e4e4c",
".Z c #b5b4b1",
".T c #4f4e4c",
".8 c #e9e8e1",
".W c #eae8e1",
".i c #f1f1ec",
".U c #bcbbb6",
"#H c #e4e2da",
".O c #515150",
"#O c #ecebe5",
".7 c #797874",
"#k c #a9a9a6",
".s c #f4f4f0",
".Q c #dad9d5",
"#b c #bfbeba",
".B c #7c7c7b",
"#G c #e5e4db",
".a c #7b7b78",
"#x c #e6e4db",
".w c #efeee9",
"#g c #959590",
"#T c #969590",
"#i c #b8b7b0",
".z c #a7a6a3",
"#. c #b4b3af",
"#R c #cecdc7",
".9 c #e8e7df",
".t c #f2f1ed",
".H c #999894",
".1 c #646361",
"#V c #aeada8",
"#S c #797875",
"#n c #ebeae3",
".E c #f5f4f1",
".# c #000000",
"#t c #bebdb8",
"#j c #e6e4dc",
"#J c #a3a29d",
"#X c #7b7a76",
".S c #eeede7",
".p c #f7f7f5",
".L c #838381",
"#z c #75746f",
"#o c #e9e7e0",
".f c #e3e3df",
".c c #f1f0eb",
".I c #62625f",
".e c #5f5e5e",
"#D c #ebeae4",
"#h c #787773",
"#v c #eceae4",
".g c #f3f3ef",
".Y c #f4f3ef",
"#c c #bebdb9",
"#W c #585754",
".l c #969592",
".J c #bcbcb6",
".A c #c6c6c4",
"#y c #e4e3da",
"#d c #7a7a77",
".3 c #eeede8",
".k c #d2d2cd",
".q c #f6f6f3",
"#M c #cdccc6",
".M c #d7d6d4",
"#E c #e7e6de",
"#w c #e8e6de",
".u c #f1f0ec",
"#u c #989793",
"#l c #626260",
"Qt c None",
"## c #d0d0cd",
"#s c #93918c",
".N c #a8a8a6",
"#K c #b6b5b2",
".x c #4f4f4d",
"#r c #777671",
"#f c #eae9e2",
".V c #ebe9e2",
".F c #f4f3f0",
".0 c #9b9a97",
"#a c #f2f2ed",
"#L c #bcbcb7",
".m c #616060",
"#N c #959490",
".C c #525251",
".4 c #edece6",
".D c #dbdbd9",
"#p c #e8e6df",
".P c #7e7d7c",
"#I c #cccbc4",
"#F c #e6e5dc",
".v c #f0efea",
"#e c #979691",
".b c #c7c7c3",
"#P c #61615e",
"QtQtQtQtQtQtQtQtQtQtQtQtQtQtQtQtQtQtQtQt",
"QtQtQtQtQtQtQtQtQtQtQtQtQtQtQtQtQtQtQtQt",
"QtQtQtQtQtQtQtQtQtQtQtQtQtQtQtQtQtQtQtQt",
"QtQtQtQtQtQtQtQtQtQtQtQtQtQtQtQtQtQtQtQt",
"QtQtQtQtQtQtQtQtQtQtQt.#.#.#.#QtQtQtQtQt",
"QtQtQtQtQtQt.#.#.#.#.#.a.b.c.d.#QtQtQtQt",
"Qt.#.#.#.#.#.e.d.f.g.h.i.j.k.l.#QtQtQtQt",
".#.m.n.o.p.q.r.s.g.t.u.v.w.x.y.z.#QtQtQt",
".#.A.B.C.D.E.F.G.t.c.v.w.H.I.J.K.#QtQtQt",
".#.L.M.N.O.P.Q.t.c.v.R.S.T.U.V.W.#QtQtQt",
"Qt.#.X.E.Y.Z.0.1.2.3.4.5.6.7.8.9#..#QtQt",
"Qt.###.g#a.u.j#b#c#d.5#e#f#g#h#i#j.#QtQt",
"Qt.##k.t.u.v.w#l.4#m#n.W#o#p#q#r#s.#QtQt",
"QtQt.#.c.v.R#t#u#v.K.W#o#w#q#x#y#z#A.#Qt",
"QtQt.#.j.R#B#C#D#f.8.9#E#F#G#H#I#J.#.#Qt",
"QtQt.##K.4#L#e#f.8.9#E#j#M#N.#.#.#QtQtQt",
"QtQtQt.##O#P#f#Q#p#R#g.#.#.#QtQtQtQtQtQt",
"QtQtQt.##S#T#U#V.#.#.#QtQtQtQtQtQtQtQtQt",
"QtQtQt.##W#X.#.#QtQtQtQtQtQtQtQtQtQtQtQt",
"QtQtQtQt.#.#QtQtQtQtQtQtQtQtQtQtQtQtQtQt"};
