/* XPM */
static char*statist[]={
"16 16 8 1",
"d c #008000",
"f c #c0c000",
"# c #000000",
"e c #800000",
"b c #ffffc0",
"a c #0000ff",
". c None",
"c c #ffffff",
"..##..##........",
".#aa#.#b###.....",
".#aa##bcbcb###..",
".#aa###ccccbcb##",
".#aa#dd#ccbcbcb#",
".#aa#dd###cbbbb#",
".#aa#dd#ee#cbbb#",
".#aa#dd#ee#bcbf#",
".#aa#dd#ee#cbb#.",
".#aa#dd#ee#bbb#.",
"##aa#dd#ee#cbb#.",
"##aa#dd#ee#bbf#.",
".##########bb#..",
"...###fbbbbbf#..",
"......###fbf#...",
".........###...."};
